<mxfile host="app.diagrams.net" agent="Mozilla/5.0 (Windows NT 10.0; Win64; x64) AppleWebKit/537.36 (KHTML, like Gecko) Chrome/135.0.0.0 Safari/537.36" version="26.2.12">
  <diagram name="Page-1" id="x0A1mbDkY2SDGxTcD0UK">
    <mxGraphModel dx="1460" dy="792" grid="1" gridSize="10" guides="1" tooltips="1" connect="1" arrows="1" fold="1" page="1" pageScale="1" pageWidth="827" pageHeight="1169" math="0" shadow="0">
      <root>
        <mxCell id="0" />
        <mxCell id="1" parent="0" />
        <mxCell id="PFGPkIYdIVfH-41H_dUm-1" value="&lt;p style=&quot;margin:0px;margin-top:4px;text-align:center;text-decoration:underline;&quot;&gt;&lt;b&gt;p :Patient&lt;/b&gt;&lt;/p&gt;&lt;hr size=&quot;1&quot; style=&quot;border-style:solid;&quot;&gt;&lt;p style=&quot;margin:0px;margin-left:8px;&quot;&gt;fullName = John Smith&lt;/p&gt;&lt;div&gt;&amp;nbsp; email = jsmith@gmail.com&lt;/div&gt;&lt;div&gt;&amp;nbsp; password = frulifrula&lt;/div&gt;&lt;div&gt;&amp;nbsp; phone = 6908653496&lt;/div&gt;&lt;div&gt;&amp;nbsp; id = 1234567890&lt;/div&gt;&lt;div&gt;&amp;nbsp; amka = 07021999&lt;/div&gt;&lt;div&gt;&lt;br&gt;&lt;/div&gt;&lt;div&gt;&lt;br&gt;&lt;/div&gt;" style="verticalAlign=top;align=left;overflow=fill;html=1;whiteSpace=wrap;" parent="1" vertex="1">
          <mxGeometry x="334" y="70" width="160" height="130" as="geometry" />
        </mxCell>
        <mxCell id="PFGPkIYdIVfH-41H_dUm-8" value="" style="endArrow=none;html=1;edgeStyle=orthogonalEdgeStyle;rounded=0;" parent="1" edge="1">
          <mxGeometry relative="1" as="geometry">
            <mxPoint x="581" y="270" as="sourcePoint" />
            <mxPoint x="494" y="120" as="targetPoint" />
            <Array as="points">
              <mxPoint x="581" y="270" />
              <mxPoint x="581" y="120" />
            </Array>
          </mxGeometry>
        </mxCell>
        <mxCell id="PFGPkIYdIVfH-41H_dUm-12" value="&lt;p style=&quot;margin:0px;margin-top:4px;text-align:center;text-decoration:underline;&quot;&gt;&lt;b&gt;a :Appointment&lt;/b&gt;&lt;/p&gt;&lt;hr size=&quot;1&quot; style=&quot;border-style:solid;&quot;&gt;&lt;p style=&quot;margin:0px;margin-left:8px;&quot;&gt;date = 07/05/2025&lt;/p&gt;&lt;div&gt;&amp;nbsp; timeFrom = 2:30&lt;/div&gt;&lt;div&gt;&amp;nbsp; timeTo = 3:00&lt;/div&gt;&lt;div&gt;&amp;nbsp; status = Incomplete&lt;/div&gt;&lt;div&gt;&amp;nbsp; patientID = 1234567890&lt;/div&gt;&lt;div&gt;&amp;nbsp; doctorID = 3456789012&lt;/div&gt;" style="verticalAlign=top;align=left;overflow=fill;html=1;whiteSpace=wrap;" parent="1" vertex="1">
          <mxGeometry x="500" y="270" width="160" height="150" as="geometry" />
        </mxCell>
        <mxCell id="PFGPkIYdIVfH-41H_dUm-13" value="&lt;p style=&quot;margin:0px;margin-top:4px;text-align:center;text-decoration:underline;&quot;&gt;&lt;b&gt;d :Doctor&lt;/b&gt;&lt;/p&gt;&lt;hr size=&quot;1&quot; style=&quot;border-style:solid;&quot;&gt;&lt;p style=&quot;margin: 0px 0px 0px 8px;&quot;&gt;fullName = Paul Allen&lt;/p&gt;&lt;div&gt;&amp;nbsp; email = pallen@gmail.com&lt;/div&gt;&lt;div&gt;&amp;nbsp; password = tralalerotralala&lt;/div&gt;&lt;div&gt;&amp;nbsp; phone = 6978231908&lt;/div&gt;&lt;div&gt;&amp;nbsp; id = 3456789012&lt;/div&gt;&lt;div&gt;&lt;span style=&quot;background-color: transparent; color: light-dark(rgb(0, 0, 0), rgb(255, 255, 255));&quot;&gt;&amp;nbsp; licenseID = 4567890123&lt;/span&gt;&lt;/div&gt;&lt;div&gt;&amp;nbsp; specialty = Pathologist&lt;/div&gt;&lt;div&gt;&amp;nbsp; bio = lorem ipsum dolor...&lt;/div&gt;&lt;div&gt;&amp;nbsp; officeLocation = Ampellokipoi&lt;/div&gt;&lt;div&gt;&amp;nbsp; rating = 4.5&lt;/div&gt;" style="verticalAlign=top;align=left;overflow=fill;html=1;whiteSpace=wrap;" parent="1" vertex="1">
          <mxGeometry x="280" y="470" width="180" height="200" as="geometry" />
        </mxCell>
        <mxCell id="PFGPkIYdIVfH-41H_dUm-14" value="&lt;p style=&quot;margin:0px;margin-top:4px;text-align:center;text-decoration:underline;&quot;&gt;&lt;b&gt;d :Diagnosis&lt;/b&gt;&lt;/p&gt;&lt;hr size=&quot;1&quot; style=&quot;border-style:solid;&quot;&gt;&lt;p style=&quot;margin:0px;margin-left:8px;&quot;&gt;appointmentID = 2345678901&lt;/p&gt;&lt;div&gt;&amp;nbsp; name = Laryngitis&lt;/div&gt;&lt;div&gt;&amp;nbsp; details = lorem ipsum dolor...&lt;/div&gt;" style="verticalAlign=top;align=left;overflow=fill;html=1;whiteSpace=wrap;" parent="1" vertex="1">
          <mxGeometry x="270" y="300" width="180" height="90" as="geometry" />
        </mxCell>
        <mxCell id="PFGPkIYdIVfH-41H_dUm-15" value="&lt;p style=&quot;margin:0px;margin-top:4px;text-align:center;text-decoration:underline;&quot;&gt;&lt;b&gt;av :Availability&lt;/b&gt;&lt;/p&gt;&lt;hr size=&quot;1&quot; style=&quot;border-style:solid;&quot;&gt;&lt;p style=&quot;margin:0px;margin-left:8px;&quot;&gt;date = 07/05/2025&lt;/p&gt;&lt;div&gt;&amp;nbsp; timeFrom = 2:30&lt;/div&gt;&lt;div&gt;&amp;nbsp; timeTo = 3:00&lt;/div&gt;&lt;div&gt;&amp;nbsp; doctorID = 3456789012&lt;/div&gt;" style="verticalAlign=top;align=left;overflow=fill;html=1;whiteSpace=wrap;" parent="1" vertex="1">
          <mxGeometry x="500" y="470" width="160" height="90" as="geometry" />
        </mxCell>
        <mxCell id="PFGPkIYdIVfH-41H_dUm-17" value="&lt;p style=&quot;margin:0px;margin-top:4px;text-align:center;text-decoration:underline;&quot;&gt;&lt;b&gt;r :Rating&lt;/b&gt;&lt;/p&gt;&lt;hr size=&quot;1&quot; style=&quot;border-style:solid;&quot;&gt;&lt;p style=&quot;margin:0px;margin-left:8px;&quot;&gt;stars = 5&lt;/p&gt;&lt;div&gt;&amp;nbsp; text = lorem ipsum dolor...&lt;/div&gt;&lt;div&gt;&amp;nbsp; patientID = 1234567890&lt;/div&gt;&lt;div&gt;&amp;nbsp; doctorID = 3456789012&lt;/div&gt;" style="verticalAlign=top;align=left;overflow=fill;html=1;whiteSpace=wrap;" parent="1" vertex="1">
          <mxGeometry x="710" y="285" width="160" height="120" as="geometry" />
        </mxCell>
        <mxCell id="PFGPkIYdIVfH-41H_dUm-18" value="" style="endArrow=none;html=1;edgeStyle=orthogonalEdgeStyle;rounded=0;" parent="1" edge="1">
          <mxGeometry relative="1" as="geometry">
            <mxPoint x="460" y="520" as="sourcePoint" />
            <mxPoint x="500" y="520" as="targetPoint" />
            <Array as="points">
              <mxPoint x="460" y="520" />
              <mxPoint x="460" y="520" />
            </Array>
          </mxGeometry>
        </mxCell>
        <mxCell id="PFGPkIYdIVfH-41H_dUm-27" value="" style="endArrow=none;html=1;edgeStyle=orthogonalEdgeStyle;rounded=0;" parent="1" edge="1">
          <mxGeometry relative="1" as="geometry">
            <mxPoint x="450" y="344.72" as="sourcePoint" />
            <mxPoint x="500" y="344.72" as="targetPoint" />
            <Array as="points">
              <mxPoint x="469.71999999999997" y="344.72" />
              <mxPoint x="469.71999999999997" y="344.72" />
            </Array>
          </mxGeometry>
        </mxCell>
        <mxCell id="PFGPkIYdIVfH-41H_dUm-29" value="" style="endArrow=none;html=1;edgeStyle=orthogonalEdgeStyle;rounded=0;" parent="1" edge="1">
          <mxGeometry relative="1" as="geometry">
            <mxPoint x="660" y="344.40999999999997" as="sourcePoint" />
            <mxPoint x="710" y="344.40999999999997" as="targetPoint" />
            <Array as="points" />
          </mxGeometry>
        </mxCell>
        <mxCell id="PFGPkIYdIVfH-41H_dUm-30" value="" style="endArrow=none;html=1;edgeStyle=orthogonalEdgeStyle;rounded=0;" parent="1" edge="1">
          <mxGeometry relative="1" as="geometry">
            <mxPoint x="579.71" y="420" as="sourcePoint" />
            <mxPoint x="579.71" y="450" as="targetPoint" />
            <Array as="points">
              <mxPoint x="579.71" y="470" />
              <mxPoint x="579.71" y="470" />
            </Array>
          </mxGeometry>
        </mxCell>
      </root>
    </mxGraphModel>
  </diagram>
</mxfile>
